<svg width="48" height="49" viewBox="0 0 48 49" fill="none" xmlns="http://www.w3.org/2000/svg">
<g id="Group 10448">
<g id="vuesax/linear/map">
<g id="map">
<path id="Vector" d="M44 18.5V30.5C44 35.5 43 39 40.76 41.26L28 28.5L43.46 13.04C43.82 14.62 44 16.42 44 18.5Z" stroke="#40282C" stroke-width="3" stroke-linecap="round" stroke-linejoin="round"/>
<path id="Vector_2" d="M43.46 13.04L12.54 43.96C6.51998 42.58 4 38.42 4 30.5V18.5C4 8.5 8 4.5 18 4.5H30C37.92 4.5 42.08 7.02001 43.46 13.04Z" stroke="#40282C" stroke-width="3" stroke-linecap="round" stroke-linejoin="round"/>
<path id="Vector_3" d="M40.7601 41.26C38.5001 43.5 35.0001 44.5 30.0001 44.5H18.0001C15.9201 44.5 14.12 44.32 12.54 43.96L28.0001 28.5L40.7601 41.26Z" stroke="#40282C" stroke-width="3" stroke-linecap="round" stroke-linejoin="round"/>
<path id="Vector_4" d="M12.48 16.46C13.84 10.6 22.6401 10.6 24.0001 16.46C24.7801 19.9 22.62 23.82 20.72 25.62C19.34 26.94 17.1601 26.94 15.7601 25.62C13.8601 23.82 11.68 19.9 12.48 16.46Z" stroke="#40282C" stroke-width="3"/>
<path id="Vector_5" d="M18.1892 17.9H18.2072" stroke="#40282C" stroke-width="4" stroke-linecap="round" stroke-linejoin="round"/>
</g>
</g>
</g>
</svg>
