<svg width="49" height="48" viewBox="0 0 49 48" fill="none" xmlns="http://www.w3.org/2000/svg">
<g id="Group 10449">
<g id="vuesax/outline/mobile">
<g id="mobile">
<path id="Vector" d="M30.6665 45.5H18.6665C9.8465 45.5 7.1665 42.82 7.1665 34V14C7.1665 5.18 9.8465 2.5 18.6665 2.5H30.6665C39.4865 2.5 42.1665 5.18 42.1665 14V34C42.1665 42.82 39.4865 45.5 30.6665 45.5ZM18.6665 5.5C11.5065 5.5 10.1665 6.86 10.1665 14V34C10.1665 41.14 11.5065 42.5 18.6665 42.5H30.6665C37.8265 42.5 39.1665 41.14 39.1665 34V14C39.1665 6.86 37.8265 5.5 30.6665 5.5H18.6665Z" fill="#40282C"/>
<path id="Vector_2" d="M28.6665 12.5H20.6665C19.8465 12.5 19.1665 11.82 19.1665 11C19.1665 10.18 19.8465 9.5 20.6665 9.5H28.6665C29.4865 9.5 30.1665 10.18 30.1665 11C30.1665 11.82 29.4865 12.5 28.6665 12.5Z" fill="#40282C"/>
<path id="Vector_3" d="M24.6664 39.72C22.1264 39.72 20.0664 37.66 20.0664 35.12C20.0664 32.58 22.1264 30.52 24.6664 30.52C27.2064 30.52 29.2664 32.58 29.2664 35.12C29.2664 37.66 27.2064 39.72 24.6664 39.72ZM24.6664 33.5C23.7864 33.5 23.0664 34.22 23.0664 35.1C23.0664 35.98 23.7864 36.7 24.6664 36.7C25.5464 36.7 26.2664 35.98 26.2664 35.1C26.2664 34.22 25.5464 33.5 24.6664 33.5Z" fill="#40282C"/>
</g>
</g>
</g>
</svg>
