<svg width="49" height="48" viewBox="0 0 49 48" fill="none" xmlns="http://www.w3.org/2000/svg">
<g id="Group 10449">
<g id="vuesax/linear/device-message">
<g id="device-message">
<path id="Vector" d="M40.3335 24.3999V27.8C40.3335 34.1 36.7335 36.8 31.3335 36.8H13.3335C7.9335 36.8 4.3335 34.1 4.3335 27.8V17C4.3335 10.7 7.9335 8 13.3335 8H18.7335C18.4735 8.76 18.3335 9.6 18.3335 10.5V18.3C18.3335 20.24 18.9735 21.88 20.1135 23.02C21.2535 24.16 22.8935 24.8 24.8335 24.8V27.5801C24.8335 28.6001 25.9935 29.2199 26.8535 28.6599L32.6335 24.8H37.8335C38.7335 24.8 39.5735 24.6599 40.3335 24.3999Z" stroke="#40282C" stroke-width="3" stroke-miterlimit="10" stroke-linecap="round" stroke-linejoin="round"/>
<path id="Vector_2" d="M44.3335 10.5V18.3C44.3335 21.28 42.8135 23.5199 40.3335 24.3999C39.5735 24.6599 38.7335 24.8 37.8335 24.8H32.6335L26.8535 28.6599C25.9935 29.2199 24.8335 28.6001 24.8335 27.5801V24.8C22.8935 24.8 21.2535 24.16 20.1135 23.02C18.9735 21.88 18.3335 20.24 18.3335 18.3V10.5C18.3335 9.6 18.4735 8.76 18.7335 8C19.6135 5.52 21.8535 4 24.8335 4H37.8335C41.7335 4 44.3335 6.6 44.3335 10.5Z" stroke="#40282C" stroke-width="3" stroke-miterlimit="10" stroke-linecap="round" stroke-linejoin="round"/>
<path id="Vector_3" d="M15.1333 44H29.5333" stroke="#40282C" stroke-width="3" stroke-miterlimit="10" stroke-linecap="round" stroke-linejoin="round"/>
<path id="Vector_4" d="M22.3335 36.8V44" stroke="#40282C" stroke-width="3" stroke-miterlimit="10" stroke-linecap="round" stroke-linejoin="round"/>
<path id="Vector_5" d="M37.3245 14.5H37.3425" stroke="#40282C" stroke-width="3" stroke-linecap="round" stroke-linejoin="round"/>
<path id="Vector_6" d="M31.7249 14.5H31.7429" stroke="#40282C" stroke-width="3" stroke-linecap="round" stroke-linejoin="round"/>
<path id="Vector_7" d="M26.1243 14.5H26.1423" stroke="#40282C" stroke-width="3" stroke-linecap="round" stroke-linejoin="round"/>
</g>
</g>
</g>
</svg>
