<svg width="16" height="17" viewBox="0 0 16 17" fill="none" xmlns="http://www.w3.org/2000/svg">
<g id="Globe Icon">
<path id="Ellipse 31" d="M8 1C12.1421 0.999999 15.5 4.35786 15.5 8.5C15.5 12.6421 12.1421 16 8 16C3.85786 16 0.5 12.6421 0.5 8.5C0.499999 4.35786 3.85786 1 8 1Z" stroke="#222222" stroke-linecap="round" stroke-linejoin="round"/>
<path id="Shape" d="M8 15.9287L8 1.07151" stroke="#222222" stroke-linecap="round" stroke-linejoin="round"/>
<path id="Shape_2" d="M10.4997 15.4999C10.4997 15.4999 12.5716 13.1429 12.5716 8.50008C12.5716 3.85723 10.4997 1.49994 10.4997 1.49994" stroke="#222222" stroke-linecap="round" stroke-linejoin="round"/>
<path id="Shape_3" d="M5.50035 1.50006C5.50035 1.50006 3.42836 3.85706 3.42836 8.49992C3.42836 13.1428 5.50035 15.5001 5.50035 15.5001" stroke="#222222" stroke-linecap="round" stroke-linejoin="round"/>
<path id="Line 40" d="M15.4283 8.5L0.499599 8.5" stroke="#222222" stroke-linecap="round" stroke-linejoin="round"/>
<path id="Line 44" d="M1.5 5.5C1.5 5.5 3.5 5.5 8 5.5C12.5 5.5 14.5 5.5 14.5 5.5" stroke="#222222" stroke-linecap="round" stroke-linejoin="round"/>
<path id="Line 45" d="M1.5 11.5C1.5 11.5 3.5 11.5 8 11.5C12.5 11.5 14.5 11.5 14.5 11.5" stroke="#222222" stroke-linecap="round" stroke-linejoin="round"/>
</g>
</svg>
