<svg width="24" height="24" viewBox="0 0 24 24" fill="none" xmlns="http://www.w3.org/2000/svg">
<g id="icons8-twitter-circled 1">
<path id="Vector" d="M12 2C9.34784 2 6.8043 3.05357 4.92893 4.92893C3.05357 6.8043 2 9.34784 2 12C2 14.6522 3.05357 17.1957 4.92893 19.0711C6.8043 20.9464 9.34784 22 12 22C14.6522 22 17.1957 20.9464 19.0711 19.0711C20.9464 17.1957 22 14.6522 22 12C22 9.34784 20.9464 6.8043 19.0711 4.92893C17.1957 3.05357 14.6522 2 12 2Z" fill="#03A9F4"/>
<path id="Vector_2" d="M18 8.56C17.559 8.7555 17.0005 8.939 16.5 9C17.009 8.698 17.8165 8.069 18 7.5C17.5245 7.7795 16.6645 8.078 16.1035 8.186C15.6555 7.711 15.0165 7.5 14.3085 7.5C12.9485 7.5 12 8.6525 12 10V11C10 11 8.05 9.4765 6.8365 8C6.623 8.3605 6.503 8.7825 6.503 9.2285C6.503 10.138 7.3385 11.061 8 11.5C7.5965 11.4875 6.8325 11.1795 6.5 11C6.5 11.008 6.5 11.018 6.5 11.0285C6.5 12.212 7.3305 13.0155 8.456 13.2395C8.2505 13.296 8 13.5 7.036 13.5C7.349 14.4675 8.9225 14.979 10 15C9.157 15.6535 7.654 16 6.5 16C6.3005 16 6.1925 16.011 6 15.9885C7.089 16.6785 8.61 17 10 17C14.5285 17 17 13.541 17 10.315C17 10.209 16.9965 9.854 16.991 9.75C17.475 9.409 17.671 9.052 18 8.56Z" fill="white"/>
</g>
</svg>
