<svg width="24" height="24" viewBox="0 0 24 24" fill="none" xmlns="http://www.w3.org/2000/svg">
<g id="icons8-youtube 1">
<path id="Vector" d="M21.6 16.95C21.4 18 20.55 18.8 19.5 18.95C17.85 19.2 15.1 19.5 12 19.5C8.95 19.5 6.2 19.2 4.5 18.95C3.45 18.8 2.6 18 2.4 16.95C2.2 15.8 2 14.1 2 12C2 9.9 2.2 8.2 2.4 7.05C2.6 6 3.45 5.2 4.5 5.05C6.15 4.8 8.9 4.5 12 4.5C15.1 4.5 17.8 4.8 19.5 5.05C20.55 5.2 21.4 6 21.6 7.05C21.8 8.2 22.05 9.9 22.05 12C22 14.1 21.8 15.8 21.6 16.95Z" fill="#FF3D00"/>
<path id="Vector_2" d="M10 15.5V8.5L16 12L10 15.5Z" fill="white"/>
</g>
</svg>
