<svg width="24" height="24" viewBox="0 0 24 24" fill="none" xmlns="http://www.w3.org/2000/svg">
<g id="icons8-linkedin 1">
<path id="Vector" d="M12 2C6.5 2 2 6.5 2 12C2 17.5 6.5 22 12 22C17.5 22 22 17.5 22 12C22 6.5 17.5 2 12 2Z" fill="#0288D1"/>
<path id="Vector_2" d="M9 9.5H7V17H9V9.5Z" fill="white"/>
<path id="Vector_3" d="M8 8.5C7.4 8.5 7 8.05 7 7.5C7 6.95 7.4 6.5 8 6.5C8.6 6.5 9 6.95 9 7.5C9 8.05 8.6 8.5 8 8.5Z" fill="white"/>
<path id="Vector_4" d="M17.5 12.25C17.5 10.75 16.25 9.5 14.75 9.5C13.8 9.5 13 9.95 12.5 10.65V9.5H10.5V17H12.5V13C12.5 12.15 13.15 11.5 14 11.5C14.85 11.5 15.5 12.15 15.5 13V17H17.5C17.5 17 17.5 12.45 17.5 12.25Z" fill="white"/>
</g>
</svg>
