<svg width="24" height="24" viewBox="0 0 24 24" fill="none" xmlns="http://www.w3.org/2000/svg">
<g id="Frame 1000003341">
<g id="Group 26086430">
<g id="Group 26086427">
<rect id="Rectangle 497" x="2.35714" y="2.35714" width="10.7143" height="10.7143" rx="1.07143" stroke="#222222" stroke-width="0.714286"/>
<g id="&#224;&#166;&#172;&#224;&#166;&#190;">
<path id="Vector" d="M11.7959 5.4372V6.37954H10.9735V10.7657H9.8427V6.96207C9.77417 6.78503 9.67708 6.6451 9.55143 6.5423C9.42579 6.43379 9.26302 6.37954 9.06313 6.37954H9.0203V5.4372H9.19163C9.32299 5.4372 9.44578 5.47146 9.56 5.54C9.67422 5.60853 9.77988 5.75417 9.87697 5.9769C9.87126 5.94834 9.86269 5.88267 9.85127 5.77987C9.84556 5.67707 9.8427 5.58854 9.8427 5.5143V4.8718H10.7679L10.9649 5.4372H11.7959Z" fill="#222222"/>
<path id="Vector_2" d="M9.19243 5.4372V6.37954H8.37002V10.7657H7.23922C7.02791 10.4573 6.77091 10.186 6.46822 9.95186C6.17124 9.7177 5.83999 9.52352 5.47448 9.36932C5.10897 9.20941 4.71204 9.09519 4.28371 9.02665L3.85537 8.01578C4.3808 7.72451 4.95476 7.44467 5.57728 7.17624C6.2055 6.90211 6.82231 6.68509 7.42769 6.52517L7.27349 6.80788V6.37954H3.63264V5.4372H9.19243ZM7.23922 7.34758L7.41912 7.53605C7.04219 7.64456 6.68524 7.7702 6.34828 7.91298C6.01704 8.05005 5.6658 8.2071 5.29458 8.38415C5.52873 8.42984 5.77146 8.50979 6.02275 8.62402C6.27975 8.73253 6.52818 8.87531 6.76805 9.05235C7.01363 9.2294 7.23351 9.435 7.42769 9.66915L7.26492 9.76339C7.25921 9.63203 7.2535 9.50068 7.24779 9.36932C7.24207 9.23796 7.23922 9.10946 7.23922 8.98382V7.34758Z" fill="#222222"/>
</g>
</g>
<g id="Group 26086431">
<g id="Group 26086429">
<path id="Polygon 6" d="M5.92857 11.2857L8.42857 14.1429H3.42857L5.92857 11.2857Z" fill="white"/>
<rect id="Rectangle 498" x="4.85725" y="14.1429" width="2.14286" height="2.14286" fill="#222222"/>
<path id="Polygon 5" d="M5.92867 12L7.71439 14.1429H4.14296L5.92867 12Z" fill="#222222"/>
</g>
</g>
<g id="Group 26086426">
<path id="Exclude" fill-rule="evenodd" clip-rule="evenodd" d="M12 10.5714C11.211 10.5714 10.5714 11.211 10.5714 12V20.5714C10.5714 21.3604 11.211 22 12 22H20.5714C21.3604 22 22 21.3604 22 20.5714V12C22 11.211 21.3604 10.5714 20.5714 10.5714H12ZM16.5382 14.9127L17.3528 17.0851H15.2237L16.0337 14.9218C16.0738 14.8224 16.1155 14.7065 16.1587 14.574C16.2019 14.4385 16.2435 14.294 16.2836 14.1405C16.3268 14.294 16.37 14.437 16.4132 14.5695C16.4564 14.702 16.4981 14.8164 16.5382 14.9127ZM18.5886 19.551H19.5513L16.9223 13.0204H15.6542L13.0206 19.551H13.9926C14.0975 19.551 14.1854 19.5224 14.2564 19.4652C14.3274 19.408 14.3752 19.3448 14.3999 19.2755L14.8998 17.9432H17.6721L18.172 19.2755C18.2059 19.3538 18.2569 19.42 18.3247 19.4742C18.3926 19.5254 18.4806 19.551 18.5886 19.551Z" fill="#222222"/>
</g>
<g id="Group 26086428">
<path id="Rectangle 499" d="M9.85711 17L9.85711 19.1428L6.99997 19.1428L4.85711 17L9.85711 17Z" fill="#222222"/>
<g id="Group 26086432">
<path id="Polygon 8" d="M12.3574 18.0714L9.50021 20.5714L9.50021 15.5714L12.3574 18.0714Z" fill="white"/>
<path id="Polygon 5_2" d="M11.6431 18.0714L9.50021 19.8571L9.50021 16.2857L11.6431 18.0714Z" fill="#222222"/>
</g>
</g>
</g>
</g>
</svg>
