<svg width="37" height="32" viewBox="0 0 37 32" fill="none" xmlns="http://www.w3.org/2000/svg">
<g id="News  Paper 1" clip-path="url(#clip0_100_1987)">
<g id="Layer 2">
<g id="Layer 1">
<path id="Vector" d="M12.0269 10.7447C11.8752 11.1459 11.5616 11.2406 11.195 11.375C10.1177 11.7701 9.05662 12.2304 8.01596 12.7049C7.21357 13.074 6.46839 13.5565 5.80327 14.1376C3.58447 16.0591 3.84311 17.9754 6.5018 19.2584C8.1463 20.0527 9.91706 20.3785 11.7174 20.5119C17.5367 20.9406 23.1535 20.1219 28.4821 17.6608C29.7529 17.0743 30.931 16.337 31.8057 15.2088C32.8382 13.88 32.6773 12.6153 31.3302 11.596C29.9331 10.539 28.2682 10.1949 26.5932 9.87717C26.3162 9.82524 25.7786 10.0238 25.8366 9.48921C25.8977 8.91389 26.4018 9.16846 26.7368 9.19595C29.0788 9.39044 31.3851 9.7672 33.5082 10.8527C33.9928 11.0962 34.447 11.3959 34.8615 11.7457C36.2494 12.9401 36.4062 14.4023 35.338 15.8972C34.4684 17.1191 33.2598 17.9337 31.9778 18.6465C29.0472 20.2879 25.8794 21.2726 22.5945 21.8652C21.6699 22.0322 21.2412 22.3988 21.0029 23.3193C20.392 25.6786 19.6242 27.9962 18.9827 30.3453C18.721 31.3045 18.1355 31.7709 17.2119 31.9073C15.4137 32.1741 13.705 31.831 12.0524 31.1263C11.8304 31.0326 11.4821 30.8942 11.531 30.7048C11.863 29.4187 9.90178 29.1163 10.3447 27.7182C10.6777 26.6694 10.6981 25.5228 10.8539 24.42C11.0911 22.7847 11.0921 22.7766 9.48429 22.5872C7.62698 22.3662 5.80021 22.0291 4.06611 21.295C3.40302 21.0325 2.78284 20.6725 2.2261 20.2268C0.760818 18.9998 0.557165 17.4755 1.68337 15.9206C2.41041 14.9125 3.39303 14.1895 4.43777 13.5429C6.43765 12.3057 8.65746 11.5746 10.8416 10.7519C11.2231 10.6077 11.6437 10.6052 12.0269 10.7447ZM15.603 23.4252C15.4177 22.4996 14.6866 22.8621 14.1398 22.8214C13.6307 22.7827 13.5064 23.1034 13.5655 23.5433C13.0187 25.643 12.813 27.8058 12.3782 29.9248C12.2927 30.3412 12.5065 30.4899 12.8069 30.5897C14.1306 31.0357 15.4788 31.2882 16.8983 31.1691C17.7699 31.0958 18.1202 30.5581 18.3127 29.8555C18.3819 29.6081 18.3524 29.3352 18.4735 29.0796C18.7851 28.4249 18.7373 28.0461 17.83 28.1194C16.9848 28.1876 16.1448 27.985 15.323 27.7691C14.93 27.6673 14.6021 27.4932 14.7121 27.0064C14.8292 26.4729 15.1886 26.5665 15.5827 26.6785C16.5985 26.9519 17.6492 27.0737 18.7006 27.04C19.1782 27.0319 19.2678 26.6908 19.2932 26.367C19.3309 25.9138 18.9338 26.0717 18.7067 26.0615C17.7557 26.0299 16.8127 25.9484 15.8902 25.7061C15.4615 25.5931 14.9595 25.4851 15.1122 24.8691C15.265 24.253 15.7344 24.5229 16.1051 24.6176C17.094 24.8562 18.1069 24.9812 19.1242 24.9903C19.6598 25.0035 19.9062 24.7296 19.9093 24.2887C19.9093 23.806 19.4633 23.9883 19.2118 23.9903C17.9695 24.0005 16.7883 23.7184 15.603 23.4252ZM12.6501 23.7001C12.5483 23.4608 12.8161 23.0474 12.3833 22.9456C11.8589 22.8224 11.867 23.303 11.8192 23.5952C11.5809 25.0656 11.3742 26.5411 11.1705 28.0165C11.1561 28.1854 11.183 28.3553 11.2489 28.5114C11.307 28.6611 11.4109 28.825 11.6053 28.8169C11.8365 28.8016 11.8171 28.5908 11.8436 28.4351C12.1175 26.8588 12.3823 25.2896 12.6521 23.7001H12.6501ZM17.9929 22.6055C18.6772 22.9181 19.3645 22.8875 20.0498 22.86C20.2341 22.8529 20.3716 22.7521 20.3553 22.5495C20.3339 22.302 20.1292 22.3458 19.9765 22.3642C19.3146 22.4344 18.6548 22.521 17.9929 22.6055Z" fill="#0C0C0C"/>
<path id="Vector_2" d="M12.3507 19.7411C11.2978 20.0751 11.5972 19.3083 11.6614 18.8399C12.2265 14.7435 12.813 10.649 13.3924 6.55457C13.6073 5.04448 13.8618 3.53745 14.0319 2.02227C14.1429 1.03456 14.654 0.48062 15.5807 0.262711C18.0489 -0.316681 20.4307 0.135428 22.7778 0.900145C23.9131 1.27079 24.9925 1.75956 25.8926 2.57315C26.5525 3.16986 26.7958 3.83988 26.5199 4.75326C25.1697 9.2282 23.8469 13.7126 22.5517 18.2066C22.3613 18.8664 22.0426 19.1464 21.3858 19.2381C19.9164 19.4417 18.4685 19.9132 16.9726 19.3399C16.5175 19.1648 16.1061 19.013 16.2792 18.4408C16.4523 17.8685 16.8901 18.1496 17.215 18.2371C18.4262 18.5724 19.676 18.748 20.9327 18.7595C21.3878 18.7646 21.6536 18.6129 21.6943 18.1567C21.7524 17.5131 21.2442 17.7952 20.9907 17.783C19.7355 17.7339 18.4907 17.536 17.2822 17.1934C16.8453 17.0651 16.4869 16.8513 16.6458 16.3472C16.8046 15.8432 17.2262 16.0234 17.5846 16.1293C18.8568 16.4979 20.1725 16.6948 21.4968 16.7148C22.0059 16.727 22.2992 16.5305 22.3114 16.0468C22.3216 15.4501 21.8216 15.7139 21.5548 15.7088C20.298 15.6746 19.051 15.4768 17.8453 15.1202C17.4145 14.997 16.8901 14.8657 17.0225 14.2893C17.1753 13.6234 17.717 13.9176 18.109 14.0317C19.3822 14.3965 20.6979 14.5919 22.0222 14.6131C22.6097 14.6253 22.9386 14.439 22.9773 13.8535C23.0282 13.1041 22.4305 13.4136 22.121 13.4065C20.73 13.3649 19.3509 13.1354 18.0214 12.7242C17.495 12.5684 17.2974 12.3597 17.4196 11.7966C17.664 10.6399 17.8972 9.46986 18.0713 8.3009C18.1732 7.58811 18.4104 7.40482 19.1151 7.66244C20.617 8.21434 22.1953 8.41494 23.8042 8.4516C24.4375 8.46687 24.7114 8.24795 24.8408 7.65939C24.9935 6.96799 25.2104 6.28982 25.4344 5.47725C23.7518 5.76189 22.0317 5.74154 20.3563 5.41717C19.3533 5.21861 18.3595 4.97321 17.494 4.41927C16.9512 4.07306 16.8128 4.1423 16.7058 4.78585C15.9177 9.533 15.0888 14.274 14.2773 19.0171C14.1826 19.5731 14.1673 20.1912 13.313 19.8134C14.26 14.3412 15.2283 8.87316 16.1336 3.39388C16.3128 2.30942 16.8352 1.76465 17.883 1.63737C19.6232 1.43372 21.2544 1.80844 22.793 2.60065C23.2451 2.83383 23.7308 3.1719 23.5649 3.77267C23.3989 4.37345 22.8236 4.37345 22.3104 4.43353C21.51 4.52822 20.7137 4.19016 19.7301 4.45695C21.5497 4.90396 23.2064 5.0679 24.8866 4.71864C25.2776 4.6382 25.7348 4.51499 25.8499 4.06695C25.9649 3.61891 25.5994 3.29409 25.2735 3.07618C22.3908 1.14147 19.2291 0.428689 15.7965 1.00197C15.2589 1.0926 14.9361 1.42353 14.8516 2.03449C14.0322 7.94179 13.1986 13.844 12.3507 19.7411ZM18.6161 2.64749C19.1867 3.05042 19.8311 3.33696 20.5125 3.49071C21.194 3.64446 21.899 3.66242 22.5873 3.54356C21.3919 2.69026 20.0732 2.37561 18.6161 2.64749ZM17.6864 3.57207C17.8605 3.57207 18.0041 3.47737 17.9257 3.345C17.7791 3.09654 17.6029 2.83587 17.3718 2.67905C17.2292 2.58232 17.0785 2.79921 17.1162 2.97842C17.1814 3.29205 17.4105 3.47127 17.6864 3.57004V3.57207Z" fill="#0C0C0C"/>
</g>
</g>
</g>
<defs>
<clipPath id="clip0_100_1987">
<rect width="35.0711" height="32" fill="white" transform="translate(0.964478)"/>
</clipPath>
</defs>
</svg>
