<svg width="44" height="41" viewBox="0 0 44 41" fill="none" xmlns="http://www.w3.org/2000/svg">
<g id="News  Paper 1" clip-path="url(#clip0_108_3328)">
<g id="Layer 2">
<g id="Layer 1">
<path id="Vector" d="M13.828 13.9306C13.6384 14.4321 13.2464 14.5504 12.7881 14.7185C11.4415 15.2123 10.1152 15.7876 8.81435 16.3808C7.81137 16.8421 6.87989 17.4453 6.04849 18.1716C3.27499 20.5735 3.59829 22.9689 6.92165 24.5727C8.97728 25.5655 11.1907 25.9728 13.4411 26.1396C20.7153 26.6754 27.7363 25.6521 34.397 22.5756C35.9855 21.8425 37.4581 20.921 38.5515 19.5107C39.8422 17.8496 39.641 16.2688 37.9571 14.9947C36.2108 13.6735 34.1297 13.2432 32.0359 12.8461C31.6897 12.7812 31.0176 13.0294 31.0902 12.3612C31.1665 11.642 31.7966 11.9602 32.2154 11.9946C35.1429 12.2377 38.0258 12.7087 40.6797 14.0655C41.2854 14.3699 41.8532 14.7445 42.3713 15.1818C44.1061 16.6748 44.3022 18.5026 42.967 20.3711C41.88 21.8985 40.3691 22.9168 38.7666 23.8077C35.1034 25.8595 31.1436 27.0904 27.0375 27.8312C25.8817 28.0399 25.3459 28.4981 25.048 29.6488C24.2843 32.5979 23.3246 35.4949 22.5227 38.4313C22.1956 39.6303 21.4637 40.2133 20.3093 40.3838C18.0615 40.7173 15.9257 40.2884 13.8599 39.4076C13.5824 39.2905 13.1471 39.1174 13.2082 38.8806C13.6231 37.273 11.1716 36.895 11.7253 35.1474C12.1415 33.8364 12.167 32.4032 12.3617 31.0247C12.6583 28.9805 12.6596 28.9703 10.6498 28.7336C8.32813 28.4574 6.04467 28.0361 3.87704 27.1184C3.04818 26.7903 2.27296 26.3403 1.57704 25.7832C-0.254566 24.2494 -0.509133 22.344 0.898618 20.4004C1.80742 19.1403 3.0357 18.2366 4.34163 17.4283C6.84147 15.8818 9.61624 14.9679 12.3465 13.9395C12.8233 13.7593 13.349 13.7561 13.828 13.9306ZM18.2982 29.7811C18.0666 28.6241 17.1527 29.0773 16.4692 29.0264C15.8327 28.978 15.6775 29.3789 15.7513 29.9288C15.0678 32.5534 14.8107 35.2569 14.2672 37.9056C14.1602 38.4262 14.4275 38.612 14.803 38.7368C16.4577 39.2943 18.1429 39.6099 19.9173 39.461C21.0068 39.3694 21.4447 38.6973 21.6852 37.8191C21.7718 37.5098 21.7349 37.1687 21.8863 36.8492C22.2758 36.0307 22.216 35.5572 21.0819 35.6489C20.0254 35.7342 18.9754 35.4809 17.9482 35.211C17.4569 35.0838 17.047 34.8661 17.1845 34.2577C17.3309 33.5907 17.7802 33.7078 18.2728 33.8478C19.5426 34.1895 20.8559 34.3418 22.1702 34.2997C22.7671 34.2895 22.8791 33.8631 22.911 33.4584C22.9581 32.8919 22.4616 33.0892 22.1778 33.0765C20.989 33.037 19.8103 32.9352 18.6572 32.6323C18.1213 32.491 17.4938 32.3561 17.6847 31.586C17.8756 30.816 18.4624 31.1533 18.9257 31.2716C20.1619 31.5698 21.4281 31.7261 22.6997 31.7375C23.3692 31.754 23.6772 31.4116 23.681 30.8605C23.681 30.2572 23.1235 30.485 22.8091 30.4876C21.2563 30.5003 19.7798 30.1477 18.2982 29.7811ZM14.607 30.1248C14.4797 29.8257 14.8145 29.3089 14.2735 29.1816C13.618 29.0276 13.6282 29.6284 13.5684 29.9937C13.2705 31.8317 13.0122 33.676 12.7576 35.5203C12.7395 35.7314 12.7731 35.9438 12.8556 36.1389C12.9281 36.326 13.058 36.531 13.3011 36.5208C13.59 36.5017 13.5658 36.2382 13.5989 36.0435C13.9413 34.0731 14.2723 32.1117 14.6096 30.1248H14.607ZM21.2856 28.7565C22.1409 29.1473 23.0001 29.1091 23.8567 29.0747C24.0871 29.0658 24.2589 28.9398 24.2385 28.6865C24.2118 28.3772 23.956 28.4319 23.765 28.4549C22.9377 28.5427 22.1129 28.6509 21.2856 28.7565Z" fill="white"/>
<path id="Vector_2" d="M14.2328 25.1762C12.9167 25.5937 13.2909 24.6352 13.3711 24.0497C14.0775 18.9291 14.8107 13.8111 15.5349 8.69301C15.8035 6.80541 16.1217 4.92162 16.3342 3.02764C16.473 1.793 17.1119 1.10058 18.2702 0.828192C21.3556 0.103951 24.3327 0.669088 27.2666 1.62498C28.6858 2.08829 30.035 2.69925 31.1602 3.71625C31.985 4.46212 32.2892 5.29965 31.9442 6.44138C30.2565 12.035 28.6031 17.6406 26.984 23.258C26.746 24.0828 26.3476 24.4328 25.5266 24.5474C23.6899 24.802 21.88 25.3913 20.0102 24.6747C19.4412 24.4558 18.927 24.2661 19.1434 23.5508C19.3598 22.8354 19.9071 23.1867 20.3131 23.2962C21.8271 23.7153 23.3894 23.9348 24.9602 23.9492C25.5292 23.9555 25.8614 23.7659 25.9123 23.1957C25.9848 22.3912 25.3497 22.7438 25.0328 22.7285C23.4638 22.6671 21.9077 22.4198 20.3971 21.9916C19.8511 21.8312 19.403 21.5639 19.6016 20.9338C19.8002 20.3038 20.3271 20.5291 20.7752 20.6614C22.3653 21.1221 24.01 21.3683 25.6654 21.3933C26.3018 21.4086 26.6684 21.1629 26.6836 20.5583C26.6964 19.8125 26.0714 20.1421 25.7379 20.1358C24.1669 20.0931 22.6081 19.8457 21.101 19.4001C20.5626 19.2461 19.9071 19.0819 20.0725 18.3614C20.2635 17.529 20.9406 17.8969 21.4307 18.0394C23.0222 18.4954 24.6668 18.7397 26.3221 18.7662C27.0566 18.7815 27.4677 18.5485 27.5161 17.8167C27.5797 16.8799 26.8326 17.2668 26.4456 17.2579C24.7068 17.2059 22.9831 16.919 21.3212 16.4051C20.6631 16.2104 20.4162 15.9494 20.569 15.2455C20.8744 13.7996 21.1659 12.3371 21.3836 10.8759C21.5108 9.98494 21.8074 9.75583 22.6882 10.0779C24.5656 10.7677 26.5385 11.0185 28.5496 11.0643C29.3413 11.0834 29.6837 10.8097 29.8453 10.074C30.0363 9.20978 30.3074 8.36208 30.5874 7.34636C28.4842 7.70216 26.334 7.67673 24.2398 7.27126C22.9861 7.02306 21.7438 6.71631 20.6619 6.02389C19.9834 5.59113 19.8103 5.67768 19.6767 6.48211C18.6915 12.416 17.6554 18.3423 16.641 24.2712C16.5226 24.9662 16.5035 25.7388 15.4356 25.2665C16.6194 18.4264 17.8298 11.5913 18.9614 4.74215C19.1854 3.38658 19.8383 2.70562 21.1481 2.54651C23.3234 2.29195 25.3624 2.76035 27.2857 3.75061C27.8508 4.04209 28.458 4.46467 28.2505 5.21564C28.043 5.96661 27.3239 5.96661 26.6824 6.04171C25.6819 6.16008 24.6866 5.7375 23.457 6.07098C25.7316 6.62976 27.8025 6.83468 29.9026 6.3981C30.3914 6.29755 30.9629 6.14353 31.1067 5.58349C31.2505 5.02344 30.7936 4.61741 30.3863 4.34502C26.7829 1.92664 22.8308 1.03566 18.5401 1.75227C17.868 1.86555 17.4645 2.27922 17.3589 3.04292C16.3347 10.427 15.2926 17.8048 14.2328 25.1762ZM22.0645 3.80916C22.7778 4.31283 23.5833 4.671 24.4351 4.86319C25.2868 5.05538 26.1681 5.07783 27.0286 4.92925C25.5343 3.86262 23.886 3.46932 22.0645 3.80916ZM20.9024 4.96489C21.1201 4.96489 21.2996 4.84652 21.2015 4.68105C21.0183 4.37048 20.7981 4.04464 20.5091 3.84862C20.3309 3.7277 20.1426 3.99881 20.1896 4.22283C20.2711 4.61486 20.5575 4.83888 20.9024 4.96235V4.96489Z" fill="white"/>
</g>
</g>
</g>
<defs>
<clipPath id="clip0_108_3328">
<rect width="43.8388" height="40" fill="white" transform="translate(0 0.5)"/>
</clipPath>
</defs>
</svg>
