<svg width="32" height="32" viewBox="0 0 32 32" fill="none" xmlns="http://www.w3.org/2000/svg">
<g id="icons8-facebook 4">
<rect width="32" height="32" rx="16" fill="#FFF9DD"/>
<path id="Star 2" d="M15.4533 8.63804C15.7601 7.78732 16.9632 7.78732 17.27 8.63804L18.699 12.6008C18.8332 12.9731 19.181 13.2257 19.5765 13.2384L23.7869 13.3729C24.6908 13.4017 25.0626 14.546 24.3483 15.1006L21.021 17.6842C20.7085 17.9269 20.5757 18.3358 20.6859 18.7158L21.8591 22.7617C22.1109 23.6303 21.1376 24.3375 20.3893 23.8295L16.904 21.4635C16.5766 21.2412 16.1467 21.2412 15.8193 21.4635L12.334 23.8295C11.5858 24.3375 10.6124 23.6303 10.8643 22.7617L12.0375 18.7158C12.1477 18.3358 12.0148 17.9269 11.7023 17.6842L8.37502 15.1006C7.66074 14.546 8.03253 13.4017 8.9364 13.3729L13.1468 13.2384C13.5423 13.2257 13.8901 12.9731 14.0243 12.6008L15.4533 8.63804Z" fill="#FFD200"/>
</g>
</svg>
