<svg width="64" height="64" viewBox="0 0 64 64" fill="none" xmlns="http://www.w3.org/2000/svg">
<g id="Frame 1000003436" filter="url(#filter0_d_108_1311)">
<rect x="6" y="4" width="50" height="50" rx="25" fill="url(#paint0_linear_108_1311)"/>
<g id="Group 26086437">
<path id="Vector" d="M19.6738 41.1947L21.3189 35.189C20.304 33.4316 19.7703 31.4372 19.7709 29.3946C19.774 23.0043 24.9742 17.8053 31.3651 17.8053C34.4666 17.8065 37.3769 19.0138 39.566 21.2041C41.7546 23.3951 42.96 26.3066 42.9588 29.4038C42.9563 35.7942 37.7549 40.9938 31.3651 40.9938H31.3603C29.4203 40.9931 27.5132 40.5065 25.8199 39.5826L19.6738 41.1947Z" fill="white"/>
<path id="Vector_2" d="M19.6737 41.5C19.5931 41.5 19.5149 41.4682 19.4569 41.4096C19.3806 41.3321 19.3507 41.2191 19.3794 41.1147L20.9909 35.2306C19.9918 33.456 19.4649 31.4409 19.4661 29.3953C19.4685 22.8358 24.8061 17.5 31.365 17.5C34.5465 17.5012 37.5355 18.7402 39.7821 20.9886C42.0286 23.2376 43.2652 26.2261 43.264 29.4038C43.2615 35.9627 37.9233 41.2991 31.365 41.2991C29.4177 41.2985 27.4911 40.8179 25.7813 39.9087L19.7513 41.4896C19.7256 41.4969 19.7 41.5 19.6737 41.5Z" fill="white"/>
<path id="Vector_3" d="M38.1806 22.5879C36.3609 20.767 33.9422 19.7637 31.3677 19.7631C26.0527 19.7631 21.73 24.084 21.7275 29.3953C21.7269 31.2156 22.2362 32.9877 23.201 34.5222L23.4306 34.8868L22.4566 38.4413L26.104 37.4851L26.4563 37.6939C27.9353 38.572 29.6317 39.0361 31.361 39.0367H31.3647C36.676 39.0367 40.9987 34.7152 41.0006 29.4032C41.0012 26.8294 40.0003 24.4088 38.1806 22.5879Z" fill="#40C351"/>
<path id="Vector_4" fill-rule="evenodd" clip-rule="evenodd" d="M28.4671 24.5498C28.2503 24.0674 28.022 24.0576 27.815 24.0491C27.6458 24.0418 27.4528 24.0424 27.2599 24.0424C27.0669 24.0424 26.753 24.115 26.4874 24.4051C26.2218 24.6951 25.4731 25.3956 25.4731 26.8208C25.4731 28.246 26.5112 29.6236 26.656 29.8166C26.8007 30.0095 28.6601 33.0279 31.6046 34.1894C34.0514 35.1542 34.5497 34.9625 35.081 34.9142C35.6122 34.866 36.795 34.2138 37.0362 33.5372C37.2774 32.8606 37.2774 32.2811 37.2054 32.1602C37.1327 32.0393 36.9397 31.9673 36.6503 31.8219C36.3609 31.6766 34.9362 30.9762 34.6706 30.8797C34.405 30.7832 34.212 30.735 34.0184 31.025C33.8255 31.3145 33.2704 31.9673 33.1013 32.1602C32.9321 32.3538 32.763 32.3782 32.4735 32.2329C32.1841 32.0876 31.251 31.7822 30.1439 30.7954C29.2829 30.0279 28.7016 29.0795 28.5325 28.7895C28.3633 28.5 28.5141 28.3431 28.6595 28.1984C28.7895 28.0683 28.9489 27.8601 29.0942 27.6909C29.239 27.5218 29.2872 27.4009 29.3837 27.2079C29.4802 27.0144 29.4319 26.8452 29.3593 26.7005C29.2878 26.5552 28.7248 25.1226 28.4671 24.5498Z" fill="white"/>
</g>
</g>
<defs>
<filter id="filter0_d_108_1311" x="0" y="0" width="64" height="64" filterUnits="userSpaceOnUse" color-interpolation-filters="sRGB">
<feFlood flood-opacity="0" result="BackgroundImageFix"/>
<feColorMatrix in="SourceAlpha" type="matrix" values="0 0 0 0 0 0 0 0 0 0 0 0 0 0 0 0 0 0 127 0" result="hardAlpha"/>
<feMorphology radius="1" operator="dilate" in="SourceAlpha" result="effect1_dropShadow_108_1311"/>
<feOffset dx="1" dy="3"/>
<feGaussianBlur stdDeviation="3"/>
<feComposite in2="hardAlpha" operator="out"/>
<feColorMatrix type="matrix" values="0 0 0 0 0 0 0 0 0 0 0 0 0 0 0 0 0 0 0.16 0"/>
<feBlend mode="normal" in2="BackgroundImageFix" result="effect1_dropShadow_108_1311"/>
<feBlend mode="normal" in="SourceGraphic" in2="effect1_dropShadow_108_1311" result="shape"/>
</filter>
<linearGradient id="paint0_linear_108_1311" x1="15" y1="4" x2="56" y2="52" gradientUnits="userSpaceOnUse">
<stop stop-color="#5FFA79"/>
<stop offset="1" stop-color="#2EBC2B"/>
</linearGradient>
</defs>
</svg>
